<?xml version="1.0" encoding="UTF-8"?> <svg xmlns="http://www.w3.org/2000/svg" id="Layer_1" data-name="Layer 1" viewBox="0 0 1200 675"><defs><style> .cls-1 { fill: #000; fill-rule: evenodd; stroke-width: 0px; } </style></defs><path class="cls-1" d="M179.86,276.89l24.22-14,24.85,14.38,52.22-42.26v161.39l-77.07,44.46-77.01-44.53v-75.81h-.06v-86.41l52.85,42.76ZM140.51,327.91v60.67l63.57,36.71,63.57-36.71v-59.73l-63.64,37.4-63.51-38.35ZM143.09,313.72l61.05,36.9,61.87-36.39-61.87-35.76-61.05,35.26ZM242.81,283.39l24.85,14.57v-34.69c-8.26,6.69-16.52,13.37-24.85,20.12ZM140.51,297.07l24.85-14.57-24.85-20.12v34.69Z"></path><path class="cls-1" d="M357.09,338.51h1.32c4.16,0,10.47-.57,10.47,5.36,0,5.42-6.37,5.23-10.15,5.23h-1.64v-10.6ZM363.96,358.82c9.02,0,17.79-3.41,17.79-13.69,0-6.87-3.03-11.6-10.03-12.49v-.13c3.97-2.02,5.42-5.61,5.42-10.03,0-9.4-5.87-12.8-14.57-12.8h-18.23v49.13h19.61ZM357.09,319.46h.88c3.47,0,7.44.25,7.44,4.73,0,4.16-3.53,4.73-6.94,4.73h-1.45v-9.46h.06Z"></path><path class="cls-1" d="M420.73,309.69h-12.8v49.13h28.13v-10.85h-15.33v-38.28Z"></path><path class="cls-1" d="M484.49,308.05c-14.13,0-27.18,10.41-27.18,25.29,0,15.89,11.42,27.12,27.18,27.12s27.18-11.23,27.18-27.12c0-14.82-13.06-25.29-27.18-25.29ZM484.49,320.47c7.63,0,13.88,6.18,13.88,12.99,0,8.45-6.24,14.63-13.88,14.63s-13.88-6.18-13.88-14.63c0-6.81,6.24-12.99,13.88-12.99Z"></path><path class="cls-1" d="M572.22,310.88c-3.78-1.58-7.57-2.46-11.67-2.46-6.94,0-13.88,3.03-18.73,7.95-4.67,4.79-7.25,11.29-7.25,17.97,0,7.32,2.46,13.69,7.88,18.54,5.11,4.6,11.6,7.25,18.42,7.25,3.97,0,7.06-1.01,11.29-2.27v-15.33c-2.65,3.22-6.87,5.23-11.04,5.23-7.95,0-13.31-5.61-13.31-13.37s5.3-13.62,13.12-13.62c4.35,0,8.58,1.89,11.23,5.42v-15.33h.06Z"></path><path class="cls-1" d="M612.58,329.99h-.13v-20.25h-12.8v49.13h12.8v-21.32h.13l16.46,21.32h16.52l-21.32-25.86,19.55-23.27h-15.83l-15.39,20.25Z"></path><path class="cls-1" d="M668.65,358.82h18.1c13.62,0,24.98-10.72,24.98-24.6s-11.29-24.6-24.98-24.6h-18.1v49.19ZM681.39,320.53h3.03c8.2,0,14,4.98,14,13.75,0,9.59-6.5,13.75-14.13,13.75h-2.9v-27.5Z"></path><path class="cls-1" d="M767.29,350.3l3.22,8.51h13.62l-18.48-49.13h-13.94l-18.92,49.13h13.56l3.41-8.51h17.53ZM763.82,340.53h-10.6l5.3-15.64h.13l5.17,15.64Z"></path><path class="cls-1" d="M835.6,320.53v-10.85h-27.94v49.13h27.94v-10.85h-15.2v-8.45h14.38v-10.78h-14.38v-8.2h15.2Z"></path><path class="cls-1" d="M860.07,358.82h12.68l4.1-28.26h.13l11.29,28.26h5.11l11.79-28.26h.13l3.59,28.26h12.8l-7.44-49.13h-12.68l-10.53,26.24-9.97-26.24h-12.55l-8.45,49.13Z"></path><path class="cls-1" d="M971.32,308.05c-14.13,0-27.18,10.41-27.18,25.29,0,15.89,11.42,27.12,27.18,27.12s27.18-11.23,27.18-27.12c0-14.82-13.06-25.29-27.18-25.29ZM971.32,320.47c7.63,0,13.88,6.18,13.88,12.99,0,8.45-6.24,14.63-13.88,14.63s-13.88-6.18-13.88-14.63c0-6.81,6.24-12.99,13.88-12.99Z"></path><path class="cls-1" d="M1023.98,358.82h12.74v-30.08h.13l23.4,30.08h12.74v-49.13h-12.74v30.02h-.13l-23.4-30.02h-12.74v49.13Z"></path></svg> 