<svg width="260" height="261" viewBox="0 0 260 261" fill="none" xmlns="http://www.w3.org/2000/svg">
<rect y="0.514648" width="260" height="260" rx="58" fill="#4A21EF"/>
<path d="M121.076 57.5146C116.627 57.5146 112.361 59.2818 109.216 62.4273L59.8071 111.837C57.9357 113.708 57 116.161 57 118.614C57 121.067 57.9357 123.52 59.8071 125.391L92.1862 157.77V100.447C92.1862 96.1694 95.6269 92.7014 99.9048 92.7014C117.978 92.7014 161.971 92.7014 167.972 92.7014L203.158 57.5151L121.076 57.5146Z" fill="white"/>
<path d="M92.1877 168.487H160.228C164.506 168.487 167.973 165.019 167.973 160.741V103.418L200.353 135.798C202.224 137.669 203.16 140.122 203.16 142.575C203.16 145.027 202.224 147.48 200.353 149.352L150.944 198.761C147.798 201.907 143.532 203.674 139.084 203.674L57.0015 203.673L92.1877 168.487Z" fill="white"/>
</svg>
