<svg width="24" height="24" viewBox="0 0 24 24" fill="none" xmlns="http://www.w3.org/2000/svg">
<g clip-path="url(#clip0_2036_1568)">
<path d="M12 0.438154C18.3727 0.438154 23.5388 5.6145 23.5388 11.9998C23.5388 18.3852 18.3727 23.5615 12 23.5615C5.62728 23.5615 0.461182 18.3852 0.461182 11.9998C0.461182 5.6145 5.62728 0.438154 12 0.438154Z" fill="black" fill-opacity="0.01" stroke="#98A2B3" stroke-miterlimit="10"/>
<path d="M4.89206 18.6982L10.4075 11.3091L4.8573 5.30141H6.10652L10.9658 10.5614L14.8918 5.30141H19.1427L13.3168 13.1061L18.4829 18.6982H17.2337L12.7587 13.8541L9.14291 18.6982H4.89206ZM6.72909 17.7763H8.68191L17.3054 6.22331H15.3526L6.72909 17.7763Z" fill="#98A2B3"/>
</g>
<defs>
<clipPath id="clip0_2036_1568">
<rect width="24" height="24" fill="white" transform="matrix(1 0 0 -1 0 24)"/>
</clipPath>
</defs>
</svg>
