<?xml version="1.0" standalone="no"?>
<!DOCTYPE svg PUBLIC "-//W3C//DTD SVG 20010904//EN"
 "http://www.w3.org/TR/2001/REC-SVG-20010904/DTD/svg10.dtd">
<svg version="1.0" xmlns="http://www.w3.org/2000/svg"
 width="400.000000pt" height="400.000000pt" viewBox="0 0 400.000000 400.000000"
 preserveAspectRatio="xMidYMid meet">

<g transform="translate(0.000000,400.000000) scale(0.100000,-0.100000)"
fill="#000000" stroke="none">
<path d="M0 2000 l0 -2000 2000 0 2000 0 0 2000 0 2000 -2000 0 -2000 0 0
-2000z m3531 635 c131 -47 190 -208 122 -333 -24 -44 -196 -239 -422 -477 -96
-101 -391 -422 -423 -461 -61 -71 -172 -101 -272 -72 -43 13 -97 63 -408 384
-183 189 -212 243 -188 348 22 100 90 167 191 188 45 9 64 8 114 -6 57 -16 67
-24 213 -173 l153 -156 26 24 c24 22 198 211 409 443 177 195 268 282 304 293
52 16 132 15 181 -2z m-2685 -56 c27 -17 119 -100 204 -185 l156 -154 154 156
c252 254 278 262 427 128 90 -82 115 -163 72 -234 -12 -19 -94 -108 -182 -198
l-161 -162 166 -168 c91 -92 173 -181 182 -199 28 -55 21 -103 -23 -164 -42
-58 -120 -123 -169 -140 -22 -7 -42 -7 -73 1 -35 10 -71 40 -215 182 -95 93
-177 168 -183 167 -6 -2 -63 -56 -128 -120 -240 -236 -274 -257 -361 -219 -55
24 -145 109 -173 162 -44 85 -19 130 188 335 l164 163 -156 152 c-86 84 -170
173 -186 197 -35 54 -38 110 -8 160 49 81 170 171 230 171 14 0 47 -14 75 -31z"/>
</g>
</svg>
